<svg width="32" height="32" fill="none" xmlns="http://www.w3.org/2000/svg"><path fill-rule="evenodd" clip-rule="evenodd" d="M28.8 0H3.2A3.2 3.2 0 000 3.2v25.6A3.2 3.2 0 003.2 32h25.6a3.2 3.2 0 003.2-3.2V3.2A3.2 3.2 0 0028.8 0zM6.4 7.302a2.505 2.505 0 005.01 0 2.506 2.506 0 00-5.01 0zM6.8 25.6h4.3V11.782H6.8V25.6zm20.4 0h-4.296v-6.72c0-1.603-.029-3.664-2.233-3.664-2.237 0-2.58 1.746-2.58 3.548V25.6h-4.296V11.782h4.123v1.888h.059c.574-1.086 1.975-2.232 4.066-2.232 4.353 0 5.157 2.862 5.157 6.583V25.6z" fill="#706458" fill-opacity=".9"/></svg>