<svg width="32" height="32" fill="none" xmlns="http://www.w3.org/2000/svg"><path fill-rule="evenodd" clip-rule="evenodd" d="M28.8 0H3.2A3.2 3.2 0 000 3.2v25.6A3.2 3.2 0 003.2 32h25.6a3.2 3.2 0 003.2-3.2V3.2A3.2 3.2 0 0028.8 0zm-4.24 9.983a9.42 9.42 0 002.64-.7 9.186 9.186 0 01-2.294 2.3c.008.19.013.383.013.575 0 5.872-4.621 12.642-13.075 12.642-2.595 0-5.01-.736-7.044-1.996.36.042.726.063 1.097.063a9.42 9.42 0 005.707-1.903c-2.01-.036-3.708-1.321-4.293-3.086a4.746 4.746 0 002.075-.077C7.285 17.394 5.7 15.598 5.7 13.445v-.056c.62.332 1.329.532 2.082.556-1.233-.797-2.044-2.157-2.044-3.698 0-.815.227-1.578.621-2.235 2.268 2.689 5.653 4.458 9.473 4.643a4.348 4.348 0 01-.12-1.012c0-2.453 2.058-4.443 4.596-4.443 1.322 0 2.516.54 3.354 1.404a9.408 9.408 0 002.919-1.08 4.48 4.48 0 01-2.02 2.459z" fill="#706458" fill-opacity=".9"/></svg>