<svg width="51" height="50" fill="none" xmlns="http://www.w3.org/2000/svg"><path d="M36.235 28.184l-.06.09c-.286.418-.277.472-.206.762l1.029 3.917a.232.232 0 01-.29.282l-4.493-1.299c-.226-.065-.51.006-.69.075a19.6 19.6 0 01-1.587.52c-.707.193-1.994.48-2.95.48-6.012 0-10.688-4.8-10.688-10.568.001-.719.079-1.435.233-2.137C17.557 15.568 21.932 12 27.176 12c6.012 0 10.874 4.674 10.855 10.437a10.13 10.13 0 01-1.796 5.747z" fill="#fff"/><path d="M26.966 34.369a9.585 9.585 0 001.35-.12.25.25 0 01.26.135.249.249 0 01-.048.29 9.833 9.833 0 01-6.768 2.67c-1.307 0-2.613-.286-3.794-.75a.975.975 0 00-.75-.013l-3.946 1.407a.232.232 0 01-.303-.263l.818-4.194c.025-.112-.056-.281-.2-.5a9.213 9.213 0 01.863-11.33.251.251 0 01.437.18v.003c-.006.174-.013.348-.013.53 0 2.668.826 5.218 2.34 7.224a10.682 10.682 0 003.08 2.862c1.886 1.219 4.211 1.869 6.674 1.869z" fill="#fff"/><rect x="1.035" y="1" width="47.996" height="48" rx="23.998" stroke="#fff" stroke-width="2"/></svg>